<?xml version="1.0" standalone="no"?>
<!DOCTYPE svg PUBLIC "-//W3C//DTD SVG 20010904//EN"
 "http://www.w3.org/TR/2001/REC-SVG-20010904/DTD/svg10.dtd">
<svg version="1.0" xmlns="http://www.w3.org/2000/svg"
 width="700.000000pt" height="700.000000pt" viewBox="0 0 700.000000 700.000000"
 preserveAspectRatio="xMidYMid meet">
<metadata>
Created by potrace 1.11, written by Peter Selinger 2001-2013
</metadata>
<g transform="translate(0.000000,700.000000) scale(0.100000,-0.100000)"
fill="#000000" stroke="none">
<path d="M0 3500 l0 -3500 3500 0 3500 0 0 3500 0 3500 -3500 0 -3500 0 0
-3500z m4390 268 l768 -1689 -115 3 -115 3 -223 495 -223 495 -458 2 -459 3
-255 -500 -255 -500 -604 0 c-570 0 -603 1 -597 18 4 9 387 753 850 1652 464
899 856 1659 871 1689 24 48 29 52 37 36 6 -10 356 -778 778 -1707z"/>
<path d="M3180 4224 c-232 -445 -438 -837 -457 -871 l-35 -63 374 0 373 0 249
493 249 492 -157 365 c-87 201 -161 371 -165 379 -5 8 -160 -277 -431 -795z"/>
<path d="M3852 3667 c-100 -203 -181 -372 -179 -374 2 -2 163 -2 358 -1 l355
3 -171 367 c-94 202 -173 369 -175 371 -3 2 -87 -162 -188 -366z"/>
<path d="M2456 2813 c-77 -148 -170 -328 -208 -400 l-70 -133 374 0 373 0 198
395 c108 217 197 397 197 400 0 3 -163 5 -363 5 l-362 0 -139 -267z"/>
</g>
</svg>
